<svg xmlns="http://www.w3.org/2000/svg" xmlns:svg="http://www.w3.org/2000/svg" id="svg2" width="48" height="48" version="1.1"><metadata id="metadata7"/><g id="layer1" transform="translate(0,-1004.3622)"><flowRoot id="flowRoot2985" xml:space="preserve" style="font-size:40px;font-style:normal;font-weight:400;line-height:125%;letter-spacing:0;word-spacing:0;fill:#000;fill-opacity:1;stroke:none;font-family:Sans"><flowRegion id="flowRegion2987"><rect id="rect2989" width="157.584" height="115.157" x="157.584" y="264.443"/></flowRegion><flowPara id="flowPara2991"/></flowRoot><path style="fill:#a04;stroke:none" id="path5724" d="m 0.35932921,1028.3622 c 0,13.2548 10.58428779,24 23.64067179,24 13.056382,0 23.64067,-10.7452 23.64067,-24 0,-13.2548 -10.584288,-24 -23.64067,-24 -13.056384,0 -23.64067179,10.7452 -23.64067179,24 z m 0,0"/><g id="g3063" transform="matrix(0.97050693,0,0,0.97050693,-230.48881,778.16912)" style="fill:#000"><path style="fill:#fff" id="path3055" d="m 271.13829,250.26413 -5.26803,0 0,-1.75601 -5.26802,-5.26802 -12.29205,0 0,21.07209 10.53604,0 0,7.02403 17.56008,0 0,-15.80407 -5.26802,-5.26802 z m 0,2.48338 2.78464,2.78464 -2.78464,0 0,-2.78464 z m -10.53605,-7.02403 2.78464,2.78464 -2.78464,0 0,-2.78464 z m -10.53604,-0.72737 8.78003,0 0,5.26802 5.26803,0 0,12.29205 -14.04806,0 0,-17.56007 z m 24.5841,24.5841 -14.04806,0 0,-5.26802 5.26802,0 0,-12.29205 3.51202,0 0,5.26802 5.26802,0 0,12.29205 z"/></g><path style="fill:#000;fill-opacity:.07999998;stroke:none" id="reflec-8" d="m 47.640671,1028.3622 c 0,-13.2548 -10.584288,-24 -23.64067,-24 -4.842304,0 -9.344572,1.478 -13.092876,4.0138 l 27.088176,39.3307 c 5.849519,-4.369 9.64537,-11.4067 9.64537,-19.3445 z m 0,0"/></g></svg>