<svg xmlns="http://www.w3.org/2000/svg" xmlns:svg="http://www.w3.org/2000/svg" id="svg2" width="48" height="48" version="1.1"><metadata id="metadata7"/><g id="layer1" transform="translate(0,-1004.3622)"><flowRoot id="flowRoot2985" xml:space="preserve" style="font-size:40px;font-style:normal;font-weight:400;line-height:125%;letter-spacing:0;word-spacing:0;fill:#000;fill-opacity:1;stroke:none;font-family:Sans"><flowRegion id="flowRegion2987"><rect id="rect2989" width="157.584" height="115.157" x="157.584" y="264.443"/></flowRegion><flowPara id="flowPara2991"/></flowRoot><path style="fill:#a04;stroke:none" id="path5724" d="m 0.35932921,1028.3622 c 0,13.2548 10.58428779,24 23.64067179,24 13.056382,0 23.64067,-10.7452 23.64067,-24 0,-13.2548 -10.584288,-24 -23.64067,-24 -13.056384,0 -23.64067179,10.7452 -23.64067179,24 z m 0,0"/><g style="fill:#fff" id="g3191" transform="matrix(0.05301961,0,0,0.05301961,13.62481,1012.1513)"><path style="fill:#fff" id="path3583" d="m 28.420108,75.423899 0,389.430571 389.430542,0 0,-389.430571 -389.430542,0 z M 385.39809,432.4019 l -324.525435,0 0,-324.52546 324.525435,0 0,324.52546 z m -389.4305304,64.90511 0,-324.52548 -32.4525406,-32.45254 0,389.43055 389.430531,0 -32.45253,-32.45253 z M 148.72473,390.4438 l 97.35764,-97.35763 74.41065,74.41063 0,-194.71527 -194.71528,0 74.41064,74.41064 -97.35763,97.35764 z"/></g><path style="fill:#000;fill-opacity:.07999998;stroke:none" id="reflec-8" d="m 47.640671,1028.3622 c 0,-13.2548 -10.584288,-24 -23.64067,-24 -4.842304,0 -9.344572,1.478 -13.092876,4.0138 l 27.088176,39.3307 c 5.849519,-4.369 9.64537,-11.4067 9.64537,-19.3445 z m 0,0"/></g></svg>