<svg xmlns="http://www.w3.org/2000/svg" xmlns:svg="http://www.w3.org/2000/svg" id="svg2" width="48" height="48" version="1.1"><metadata id="metadata7"/><g id="layer1" transform="translate(0,-1004.3622)"><flowRoot id="flowRoot2985" xml:space="preserve" style="font-size:40px;font-style:normal;font-weight:400;line-height:125%;letter-spacing:0;word-spacing:0;fill:#000;fill-opacity:1;stroke:none;font-family:Sans"><flowRegion id="flowRegion2987"><rect id="rect2989" width="157.584" height="115.157" x="157.584" y="264.443"/></flowRegion><flowPara id="flowPara2991"/></flowRoot><path style="fill:#a04;stroke:none" id="path5724" d="m 0.35932921,1028.3622 c 0,13.2548 10.58428779,24 23.64067179,24 13.056382,0 23.64067,-10.7452 23.64067,-24 0,-13.2548 -10.584288,-24 -23.64067,-24 -13.056384,0 -23.64067179,10.7452 -23.64067179,24 z m 0,0"/><g style="fill:#fff" id="g3175" transform="matrix(0.05406766,0,0,0.05406766,9.7367551,1014.4013)"><path id="path3167" d="m 416,160 0,-80 c 0,-8.8 -7.2,-16 -16,-16 l -112,0 0,-32 C 288,14.4 273.6,0 256,0 l -64,0 c -17.602,0 -32,14.4 -32,32 l 0,32 -112,0 c -8.801,0 -16,7.2 -16,16 l 0,320 c 0,8.8 7.199,16 16,16 l 144,0 0,96 224,0 96,-96 0,-256 -96,0 z M 192,32.057 c 0.017,-0.019 0.036,-0.039 0.057,-0.057 l 63.884,0 c 0.021,0.018 0.041,0.038 0.059,0.057 L 256,64 192,64 192,32.057 z M 96,128 l 0,-32 256,0 0,32 -256,0 z M 416,466.745 416,416 466.745,416 416,466.745 z M 480,384 l -96,0 0,96 -160,0 0,-288 256,0 0,192 z" style="fill:#fff"/></g><path style="fill:#000;fill-opacity:.07999998;stroke:none" id="reflec-8" d="m 47.640671,1028.3622 c 0,-13.2548 -10.584288,-24 -23.64067,-24 -4.842304,0 -9.344572,1.478 -13.092876,4.0138 l 27.088176,39.3307 c 5.849519,-4.369 9.64537,-11.4067 9.64537,-19.3445 z m 0,0"/></g></svg>