<svg xmlns="http://www.w3.org/2000/svg" xmlns:svg="http://www.w3.org/2000/svg" id="svg2" width="48" height="48" version="1.1"><metadata id="metadata7"/><g id="layer1" transform="translate(0,-1004.3622)"><flowRoot id="flowRoot2985" xml:space="preserve" style="font-size:40px;font-style:normal;font-weight:400;line-height:125%;letter-spacing:0;word-spacing:0;fill:#000;fill-opacity:1;stroke:none;font-family:Sans"><flowRegion id="flowRegion2987"><rect id="rect2989" width="157.584" height="115.157" x="157.584" y="264.443"/></flowRegion><flowPara id="flowPara2991"/></flowRoot><g id="g3903" transform="matrix(1,0,0,-1,-0.35932921,2056.7244)"><path id="path5724" d="m 0.71865842,1028.3622 c 0,-13.2548 10.58428758,-24 23.64067158,-24 13.056382,0 23.64067,10.7452 23.64067,24 0,13.2548 -10.584288,24 -23.64067,24 -13.056384,0 -23.64067158,-10.7452 -23.64067158,-24 z m 0,0" style="fill:#a04;stroke:none"/><g style="fill:#000" id="g3171" transform="matrix(1,0,0,-1,-245.83509,1286.4644)"><path id="path3163" d="m 279.05247,245.97938 -20.91969,0 0,23.90822 23.90822,0 0,-20.91969 -2.98853,-2.98853 z m -8.96558,2.98853 2.98852,0 0,5.97706 -2.98852,0 0,-5.97706 z m 8.96558,17.93116 -17.93116,0 0,-17.93116 1.49427,0 0,7.47131 13.44837,0 0,-7.47131 1.75057,0 1.23795,1.23786 0,16.6933 z" style="fill:#fff"/></g><path id="reflec-8" d="m 48,1028.3622 c 0,13.2548 -10.584288,24 -23.64067,24 -4.842304,0 -9.344572,-1.478 -13.092876,-4.0138 L 38.35463,1009.0177 C 44.204149,1013.3867 48,1020.4244 48,1028.3622 z m 0,0" style="fill:#000;fill-opacity:.07999998;stroke:none"/></g></g></svg>