<svg xmlns="http://www.w3.org/2000/svg" xmlns:svg="http://www.w3.org/2000/svg" id="svg2" width="48" height="48" version="1.1"><metadata id="metadata7"/><g id="layer1" transform="translate(0,-1004.3622)"><flowRoot id="flowRoot2985" xml:space="preserve" style="font-size:40px;font-style:normal;font-weight:400;line-height:125%;letter-spacing:0;word-spacing:0;fill:#000;fill-opacity:1;stroke:none;font-family:Sans"><flowRegion id="flowRegion2987"><rect id="rect2989" width="157.584" height="115.157" x="157.584" y="264.443"/></flowRegion><flowPara id="flowPara2991"/></flowRoot><path id="path3890" d="m 29.529267,1014.9236 c 0.369694,0.7226 0.663774,1.5124 0.882245,2.3694 0.235255,0.8571 0.352887,1.5965 0.352898,2.2182 -1.1e-5,1.0924 -0.352908,2.0838 -1.058693,2.9745 -0.705805,0.8738 -1.588049,1.3107 -2.646734,1.3107 -0.386515,0 -0.815033,-0.092 -1.285557,-0.2773 -0.453731,-0.1848 -0.823433,-0.4705 -1.109107,-0.857 -0.352903,0.8571 -0.840238,1.5124 -1.462006,1.9661 -0.621774,0.4538 -1.268754,0.6807 -1.940938,0.6806 -0.907452,10e-5 -1.646856,-0.2856 -2.218215,-0.857 -0.588162,-0.5713 -0.882243,-1.4032 -0.882245,-2.4955 2e-6,-0.3697 0.06721,-0.8486 0.201655,-1.4368 0.134439,-0.6049 0.344498,-1.1763 0.630176,-1.7141 l 1.033486,0.2017 c -0.168046,0.7226 -0.252069,1.3276 -0.25207,1.8149 1e-6,1.2604 0.546151,1.8905 1.638455,1.8905 0.520942,0 0.949461,-0.1848 1.285556,-0.5545 0.352896,-0.3697 0.529344,-0.8739 0.529348,-1.5125 l -0.100835,-2.3694 1.58804,-1.0335 c 0.168042,1.21 0.352893,2.0502 0.554554,2.5207 0.218456,0.4706 0.504133,0.8319 0.857037,1.0839 0.369697,0.2521 0.848629,0.3781 1.436799,0.3781 0.285672,0 0.554546,-0.092 0.806624,-0.2773 0.268865,-0.1848 0.445314,-0.3696 0.529347,-0.5545 -0.134447,-0.5882 -0.495746,-1.5124 -1.083901,-2.7728 -0.08403,-0.2016 -0.12604,-0.4033 -0.12604,-0.605 -8e-6,-0.4369 0.176441,-0.857 0.529346,-1.2603 0.369695,-0.4201 0.806615,-0.6974 1.310764,-0.8318" style="font-size:40px;font-style:normal;font-variant:normal;font-weight:400;font-stretch:normal;line-height:125%;letter-spacing:0;word-spacing:0;fill:#000;fill-opacity:1;stroke:none;font-family:Droid Arabic Naskh;-inkscape-font-specification:Droid Arabic Naskh"/><g id="g3903" transform="translate(-0.35932921,0)"><path id="path5724" d="m 0.71865842,1028.3622 c 0,-13.2548 10.58428758,-24 23.64067158,-24 13.056382,0 23.64067,10.7452 23.64067,24 0,13.2548 -10.584288,24 -23.64067,24 -13.056384,0 -23.64067158,-10.7452 -23.64067158,-24 z m 0,0" style="fill:#214478;stroke:none;fill-opacity:1"/><path style="font-size:40px;font-style:normal;font-variant:normal;font-weight:400;font-stretch:normal;line-height:125%;letter-spacing:0;word-spacing:0;fill:#fff;fill-opacity:1;stroke:none;font-family:Droid Arabic Naskh;-inkscape-font-specification:Droid Arabic Naskh" id="path3876" d="m 37.294992,1037.6698 c -4.2e-5,1.1679 -0.560564,1.7517 -1.681579,1.7517 -1.214494,0 -1.82174,-0.5838 -1.821699,-1.7517 -4.1e-5,-1.1677 0.607205,-1.7516 1.821699,-1.7516 1.121015,0 1.681537,0.5839 1.681579,1.7516 m -5.184856,-3.4332 c -2.8e-5,1.1445 -0.56055,1.7167 -1.681565,1.7167 -1.214508,0 -1.821741,-0.5722 -1.821713,-1.7167 -2.8e-5,-1.1911 0.607205,-1.7866 1.821713,-1.7866 1.121015,0 1.681537,0.5955 1.681565,1.7866 m 8.653093,8.6181 c -3.7e-5,1.1911 -0.595594,1.7866 -1.786672,1.7866 -1.144434,0 -1.716644,-0.5955 -1.716602,-1.7866 -4.2e-5,-1.1443 0.595517,-1.7166 1.786675,-1.7166 1.14436,0 1.716562,0.5723 1.716599,1.7166 m -14.748799,-9.9143 c -1.4e-5,1.1912 -0.583898,1.7868 -1.751625,1.7866 -1.167782,2e-4 -1.751666,-0.5954 -1.751638,-1.7866 -2.8e-5,-1.1443 0.583856,-1.7165 1.751638,-1.7166 1.167727,10e-5 1.751611,0.5723 1.751625,1.7166 m -6.060654,1.2962 c -2.8e-5,1.1445 -0.595573,1.7167 -1.786676,1.7167 -1.14442,0 -1.716616,-0.5722 -1.716602,-1.7167 -1.4e-5,-1.1911 0.572182,-1.7866 1.716602,-1.7866 1.191103,0 1.786648,0.5955 1.786676,1.7866 m -5.184856,3.4332 c -1.4e-5,1.1679 -0.583885,1.7517 -1.751639,1.7517 -1.167768,0 -1.75164,-0.5488 -1.75164,-1.6465 0,-1.2379 0.583872,-1.8568 1.75164,-1.8568 1.167754,0 1.751625,0.5839 1.751639,1.7516 m -3.468242,5.1849 c -1.4e-5,1.1911 -0.560535,1.7866 -1.6815788,1.7866 -1.214465,0 -1.821698,-0.5955 -1.821698,-1.7866 0,-1.1443 0.58387,-1.7166 1.751638,-1.7166 1.1677548,0 1.7516248,0.5723 1.7516388,1.7166"/><path id="reflec-8" d="m 48,1028.3622 c 0,13.2548 -10.584288,24 -23.64067,24 -4.842304,0 -9.344572,-1.478 -13.092876,-4.0138 L 38.35463,1009.0177 C 44.204149,1013.3867 48,1020.4244 48,1028.3622 z m 0,0" style="fill:#000;fill-opacity:.07999998;stroke:none"/></g><g style="font-size:40px;font-style:normal;font-weight:400;line-height:125%;letter-spacing:0;word-spacing:0;fill:#fff;fill-opacity:1;stroke:none;font-family:Sans" id="flowRoot3000" transform="matrix(1.2905979,0,0,1.1037662,-219.46986,1133.6541)"><path style="font-variant:normal;font-stretch:normal;fill:#fff;font-family:Droid Arabic Naskh;-inkscape-font-specification:Droid Arabic Naskh" id="path3035" d="m 189.06724,-111.79045 c 0.38933,2.03129 0.65169,3.73246 0.78711,5.10351 0.13542,1.37114 0.20313,2.95381 0.20313,4.74806 0,2.183609 -0.56706,4.054056 -1.70117,5.611322 l -0.38086,-0.101569 c 0,-3.808563 -0.3724,-7.202443 -1.11719,-10.181643 -0.15234,-0.55856 -0.22852,-1.04944 -0.22852,-1.47265 0,-0.86325 0.22853,-1.62496 0.68556,-2.28515 0.4401,-0.67706 1.02409,-1.15101 1.75194,-1.42188"/></g></g></svg>