<svg xmlns="http://www.w3.org/2000/svg" xmlns:svg="http://www.w3.org/2000/svg" id="svg2" width="48" height="48" version="1.1"><metadata id="metadata7"/><g id="layer1" transform="translate(0,-1004.3622)"><flowRoot id="flowRoot2985" xml:space="preserve" style="font-size:40px;font-style:normal;font-weight:400;line-height:125%;letter-spacing:0;word-spacing:0;fill:#000;fill-opacity:1;stroke:none;font-family:Sans"><flowRegion id="flowRegion2987"><rect id="rect2989" width="157.584" height="115.157" x="157.584" y="264.443"/></flowRegion><flowPara id="flowPara2991"/></flowRoot><path style="fill:#a04;stroke:none" id="path5724" d="m 0.35932921,1028.3622 c 0,13.2548 10.58428779,24 23.64067179,24 13.056382,0 23.64067,-10.7452 23.64067,-24 0,-13.2548 -10.584288,-24 -23.64067,-24 -13.056384,0 -23.64067179,10.7452 -23.64067179,24 z m 0,0"/><g style="fill:#fff" id="g3191" transform="matrix(0.05301961,0,0,0.05301961,10.695122,1014.4951)"><path id="path3183" d="M 496.131,435.698 374.855,332.551 C 362.318,321.268 348.91,316.088 338.079,316.588 366.707,283.054 384,239.549 384,192 384,85.961 298.039,0 192,0 85.962,0 0,85.961 0,192 c 0,106.039 85.961,192 192,192 47.549,0 91.054,-17.293 124.588,-45.922 -0.5,10.831 4.68,24.239 15.963,36.776 L 435.698,496.13 c 17.661,19.623 46.511,21.277 64.11,3.678 17.599,-17.599 15.946,-46.449 -3.677,-64.11 z M 192,320 C 121.308,320 64,262.692 64,192 64,121.308 121.308,64 192,64 c 70.692,0 128,57.308 128,128 0,70.692 -57.307,128 -128,128 z m 32,-224 -64,0 0,64 -64,0 0,64 64,0 0,64 64,0 0,-64 64,0 0,-64 -64,0 z" style="fill:#fff"/></g><path style="fill:#000;fill-opacity:.07999998;stroke:none" id="reflec-8" d="m 47.640671,1028.3622 c 0,-13.2548 -10.584288,-24 -23.64067,-24 -4.842304,0 -9.344572,1.478 -13.092876,4.0138 l 27.088176,39.3307 c 5.849519,-4.369 9.64537,-11.4067 9.64537,-19.3445 z m 0,0"/></g></svg>