<svg xmlns="http://www.w3.org/2000/svg" xmlns:svg="http://www.w3.org/2000/svg" id="svg2" width="48" height="48" version="1.1"><metadata id="metadata7"/><g id="layer1" transform="translate(0,-1004.3622)"><flowRoot id="flowRoot2985" xml:space="preserve" style="font-size:40px;font-style:normal;font-weight:400;line-height:125%;letter-spacing:0;word-spacing:0;fill:#000;fill-opacity:1;stroke:none;font-family:Sans"><flowRegion id="flowRegion2987"><rect id="rect2989" width="157.584" height="115.157" x="157.584" y="264.443"/></flowRegion><flowPara id="flowPara2991"/></flowRoot><path style="fill:#a04;stroke:none" id="path5724" d="m 0.35932921,1028.3622 c 0,13.2548 10.58428779,24 23.64067179,24 13.056382,0 23.64067,-10.7452 23.64067,-24 0,-13.2548 -10.584288,-24 -23.64067,-24 -13.056384,0 -23.64067179,10.7452 -23.64067179,24 z m 0,0"/><g style="fill:#fff" id="g3064" transform="matrix(0.06041516,0,0,0.06041516,11.191327,1014.7075)"><path id="path3055-2" d="m 365.99804,311.99913 0,-55.99913 -139.99782,0 0,-55.99913 139.99782,0 0,-55.99913 83.9987,83.99869 z m -27.99956,-27.99956 0,111.99826 -139.99783,0 0,83.99869 -167.997391,-83.99869 0,-363.994354 307.995221,0 0,139.997824 -27.99957,0 0,-111.998259 -223.99652,0 111.99826,55.999129 0,251.99609 111.99826,0 0,-83.99869 z" style="fill:#fff"/></g><path style="fill:#000;fill-opacity:.07999998;stroke:none" id="reflec-8" d="m 47.640671,1028.3622 c 0,-13.2548 -10.584288,-24 -23.64067,-24 -4.842304,0 -9.344572,1.478 -13.092876,4.0138 l 27.088176,39.3307 c 5.849519,-4.369 9.64537,-11.4067 9.64537,-19.3445 z m 0,0"/></g></svg>