<svg xmlns="http://www.w3.org/2000/svg" xmlns:svg="http://www.w3.org/2000/svg" id="svg2" width="48" height="48" version="1.1"><metadata id="metadata7"/><g id="layer1" transform="translate(0,-1004.3622)"><flowRoot id="flowRoot2985" xml:space="preserve" style="font-size:40px;font-style:normal;font-weight:400;line-height:125%;letter-spacing:0;word-spacing:0;fill:#000;fill-opacity:1;stroke:none;font-family:Sans"><flowRegion id="flowRegion2987"><rect id="rect2989" width="157.584" height="115.157" x="157.584" y="264.443"/></flowRegion><flowPara id="flowPara2991"/></flowRoot><path id="path3890" d="m 29.529267,1016.9236 c 0.369694,0.7226 0.663774,1.5124 0.882245,2.3694 0.235255,0.8571 0.352887,1.5965 0.352898,2.2182 -1.1e-5,1.0924 -0.352908,2.0838 -1.058693,2.9745 -0.705805,0.8738 -1.588049,1.3107 -2.646734,1.3107 -0.386515,0 -0.815033,-0.092 -1.285557,-0.2773 -0.453731,-0.1848 -0.823433,-0.4705 -1.109107,-0.857 -0.352903,0.8571 -0.840238,1.5124 -1.462006,1.9661 -0.621774,0.4538 -1.268754,0.6807 -1.940938,0.6806 -0.907452,10e-5 -1.646856,-0.2856 -2.218215,-0.857 -0.588162,-0.5713 -0.882243,-1.4032 -0.882245,-2.4955 2e-6,-0.3697 0.06721,-0.8486 0.201655,-1.4368 0.134439,-0.6049 0.344498,-1.1763 0.630176,-1.7141 l 1.033486,0.2017 c -0.168046,0.7226 -0.252069,1.3276 -0.25207,1.8149 1e-6,1.2604 0.546151,1.8905 1.638455,1.8905 0.520942,0 0.949461,-0.1848 1.285556,-0.5545 0.352896,-0.3697 0.529344,-0.8739 0.529348,-1.5125 l -0.100835,-2.3694 1.58804,-1.0335 c 0.168042,1.21 0.352893,2.0502 0.554554,2.5207 0.218456,0.4706 0.504133,0.8319 0.857037,1.0839 0.369697,0.2521 0.848629,0.3781 1.436799,0.3781 0.285672,0 0.554546,-0.092 0.806624,-0.2773 0.268865,-0.1848 0.445314,-0.3696 0.529347,-0.5545 -0.134447,-0.5882 -0.495746,-1.5124 -1.083901,-2.7728 -0.08403,-0.2016 -0.12604,-0.4033 -0.12604,-0.605 -8e-6,-0.4369 0.176441,-0.857 0.529346,-1.2603 0.369695,-0.4201 0.806615,-0.6974 1.310764,-0.8318" style="font-size:40px;font-style:normal;font-variant:normal;font-weight:400;font-stretch:normal;line-height:125%;letter-spacing:0;word-spacing:0;fill:#000;fill-opacity:1;stroke:none;font-family:Droid Arabic Naskh;-inkscape-font-specification:Droid Arabic Naskh"/><path style="fill:#214478;fill-opacity:1;stroke:none" id="path5724" d="m 0.35932921,1028.3622 c 0,-13.2548 10.58428779,-24 23.64067179,-24 13.056382,0 23.64067,10.7452 23.64067,24 0,13.2548 -10.584288,24 -23.64067,24 -13.056384,0 -23.64067179,-10.7452 -23.64067179,-24 z m 0,0"/><g style="font-size:40px;font-style:normal;font-weight:400;line-height:125%;letter-spacing:0;word-spacing:0;fill:#fff;fill-opacity:1;stroke:none;font-family:Sans" id="flowRoot4036" transform="matrix(0.75808647,0,0,0.75808647,-70.862266,1002.6779)"><path style="font-variant:normal;font-weight:700;font-stretch:normal;fill:#fff;font-family:Droid Arabic Naskh;-inkscape-font-specification:Droid Arabic Naskh Bold" id="path4155" d="m 120.73828,37.617021 c -3.73699,-1e-6 -6.58855,-0.846354 -8.55469,-2.539063 -1.95313,-1.705726 -2.92969,-4.205723 -2.92968,-7.5 -1e-5,-0.742177 0.11067,-1.647124 0.33203,-2.714844 0.22135,-1.080716 0.41666,-1.894517 0.58594,-2.441406 l 2.10937,0 -0.0586,0.507813 -0.0977,1.816406 c -1e-5,1.848969 0.37109,3.287769 1.11328,4.316406 0.74218,1.015632 1.86848,1.764329 3.37891,2.246094 1.52342,0.468755 3.47004,0.70313 5.83984,0.703125 2.77342,5e-6 5.46873,-0.253901 8.08594,-0.761719 2.63018,-0.507806 5.02601,-1.236972 7.1875,-2.1875 -0.4167,-0.92447 -0.83337,-1.757803 -1.25,-2.5 -0.4167,-0.742176 -0.7943,-1.412749 -1.13281,-2.011719 -0.32555,-0.611966 -0.59248,-1.15884 -0.80079,-1.640625 -0.19534,-0.494777 -0.29299,-0.950506 -0.29296,-1.367187 -3e-5,-0.768213 0.42314,-1.614566 1.26953,-2.539063 0.85934,-0.92446 1.86195,-1.666647 3.00781,-2.226562 l 0.60547,3.066406 c 0.8984,4.244805 1.34762,6.861989 1.34765,7.851563 -3e-5,1.341153 -0.61201,3.235683 -1.83593,5.683593 -2.14847,1.276044 -4.84378,2.304689 -8.08594,3.085938 -3.22919,0.768229 -6.50392,1.152343 -9.82422,1.152344 m 5.25391,7.050781 c -0.82033,1.23697 -2.01825,2.597646 -3.59375,4.082031 -1.69273,-1.341156 -3.02736,-2.565113 -4.00391,-3.671875 0.95051,-0.872403 1.97264,-1.914069 3.06641,-3.125 l 0.83984,-0.917969 c 0.92446,1.01562 2.15493,2.226557 3.69141,3.632813 m 8.63281,-0.878906 c -0.84638,1.289054 -2.03128,2.66275 -3.55469,4.121093 -1.73179,-1.354176 -3.06643,-2.591154 -4.0039,-3.710937 0.93747,-0.872402 2.23305,-2.220057 3.88671,-4.042969 0.67706,0.729163 1.90102,1.940099 3.67188,3.632813 m -3.90625,6.855468 c -1.65367,1.757797 -2.81903,2.864567 -3.49609,3.320313 -1.38023,-0.898454 -2.64325,-2.005224 -3.78907,-3.320313 1.32811,-1.250012 2.52603,-2.4935 3.59375,-3.730468 0.45571,0.611968 1.02863,1.26952 1.71875,1.972656 0.70311,0.703112 1.36066,1.289049 1.97266,1.757812"/></g><path style="fill:#000;fill-opacity:.07999998;stroke:none" id="reflec-8" d="m 47.640671,1028.3622 c 0,13.2548 -10.584288,24 -23.64067,24 -4.842304,0 -9.344572,-1.478 -13.092876,-4.0138 l 27.088176,-39.3307 c 5.849519,4.369 9.64537,11.4067 9.64537,19.3445 z m 0,0"/></g></svg>