<svg xmlns="http://www.w3.org/2000/svg" xmlns:svg="http://www.w3.org/2000/svg" id="svg2" width="48" height="48" version="1.1"><metadata id="metadata7"/><g id="layer1" transform="translate(0,-1004.3622)"><path style="fill:#338000;fill-opacity:1;stroke:none" id="path5724" d="m 0.35932921,1028.3622 c 0,-13.2548 10.58428779,-24 23.64067179,-24 13.056382,0 23.64067,10.7452 23.64067,24 0,13.2548 -10.584288,24 -23.64067,24 -13.056384,0 -23.64067179,-10.7452 -23.64067179,-24 z m 0,0"/><path id="path3890" d="m 30.911141,1013.3658 c 0.480603,0.9394 0.862907,1.9661 1.146919,3.0802 0.305831,1.1143 0.458753,2.0755 0.458767,2.8837 -1.4e-5,1.4201 -0.45878,2.7089 -1.376301,3.8668 -0.917546,1.136 -2.064463,1.704 -3.440754,1.704 -0.502469,0 -1.059543,-0.1196 -1.671224,-0.3605 -0.58985,-0.2403 -1.070463,-0.6117 -1.441839,-1.1141 -0.458774,1.1142 -1.092309,1.9661 -1.900608,2.5559 -0.808306,0.5899 -1.64938,0.8849 -2.523219,0.8848 -1.179688,10e-5 -2.140913,-0.3713 -2.88368,-1.1141 -0.76461,-0.7427 -1.146916,-1.8242 -1.146918,-3.2442 2e-6,-0.4806 0.08737,-1.1032 0.262151,-1.8678 0.174771,-0.7864 0.447848,-1.5292 0.819229,-2.2283 l 1.343532,0.2622 c -0.21846,0.9393 -0.32769,1.7258 -0.327691,2.3593 1e-6,1.6386 0.709996,2.4577 2.129991,2.4577 0.677225,0 1.2343,-0.2403 1.671223,-0.7209 0.458765,-0.4806 0.688147,-1.136 0.688153,-1.9662 l -0.131086,-3.0802 2.064452,-1.3436 c 0.218455,1.573 0.458761,2.6653 0.72092,3.2769 0.283993,0.6118 0.655373,1.0815 1.114148,1.4091 0.480606,0.3277 1.103218,0.4915 1.867839,0.4915 0.371374,0 0.72091,-0.1196 1.048611,-0.3605 0.349525,-0.2402 0.578908,-0.4804 0.688151,-0.7208 -0.174781,-0.7647 -0.644469,-1.9661 -1.409071,-3.6047 -0.109239,-0.262 -0.163852,-0.5242 -0.163852,-0.7865 -10e-6,-0.5679 0.229373,-1.1141 0.68815,-1.6383 0.480603,-0.5462 1.048599,-0.9067 1.703993,-1.0814" style="font-size:40px;font-style:normal;font-variant:normal;font-weight:400;font-stretch:normal;line-height:125%;letter-spacing:0;word-spacing:0;fill:#fff;fill-opacity:1;stroke:none;font-family:Droid Arabic Naskh;-inkscape-font-specification:Droid Arabic Naskh"/><flowRoot id="flowRoot2985" xml:space="preserve" style="font-size:40px;font-style:normal;font-weight:400;line-height:125%;letter-spacing:0;word-spacing:0;fill:#000;fill-opacity:1;stroke:none;font-family:Sans"><flowRegion id="flowRegion2987"><rect id="rect2989" width="157.584" height="115.157" x="157.584" y="264.443"/></flowRegion><flowPara id="flowPara2991"/></flowRoot><path style="fill:#000;fill-opacity:.07999998;stroke:none" id="reflec-8" d="m 47.640671,1028.3622 c 0,13.2548 -10.584288,24 -23.64067,24 -4.842304,0 -9.344572,-1.478 -13.092876,-4.0138 l 27.088176,-39.3307 c 5.849519,4.369 9.64537,11.4067 9.64537,19.3445 z m 0,0"/><path id="path3876" d="m 36.935663,1037.6698 c -4.2e-5,1.1679 -0.560564,1.7517 -1.681579,1.7517 -1.214494,0 -1.82174,-0.5838 -1.821699,-1.7517 -4.1e-5,-1.1677 0.607205,-1.7516 1.821699,-1.7516 1.121015,0 1.681537,0.5839 1.681579,1.7516 m -5.184856,-3.4332 c -2.8e-5,1.1445 -0.56055,1.7167 -1.681565,1.7167 -1.214508,0 -1.821741,-0.5722 -1.821713,-1.7167 -2.8e-5,-1.1911 0.607205,-1.7866 1.821713,-1.7866 1.121015,0 1.681537,0.5955 1.681565,1.7866 m 8.653093,8.6181 c -3.7e-5,1.1911 -0.595594,1.7866 -1.786672,1.7866 -1.144434,0 -1.716644,-0.5955 -1.716602,-1.7866 -4.2e-5,-1.1443 0.595517,-1.7166 1.786675,-1.7166 1.14436,0 1.716562,0.5723 1.716599,1.7166 m -14.748799,-9.9143 c -1.4e-5,1.1912 -0.583898,1.7868 -1.751625,1.7866 -1.167782,2e-4 -1.751666,-0.5954 -1.751638,-1.7866 -2.8e-5,-1.1443 0.583856,-1.7165 1.751638,-1.7166 1.167727,10e-5 1.751611,0.5723 1.751625,1.7166 m -6.060654,1.2962 c -2.8e-5,1.1445 -0.595573,1.7167 -1.786676,1.7167 -1.14442,0 -1.716616,-0.5722 -1.716602,-1.7167 -1.4e-5,-1.1911 0.572182,-1.7866 1.716602,-1.7866 1.191103,0 1.786648,0.5955 1.786676,1.7866 m -5.184856,3.4332 c -1.4e-5,1.1679 -0.583885,1.7517 -1.751639,1.7517 -1.167768,0 -1.75164,-0.5488 -1.75164,-1.6465 0,-1.2379 0.583872,-1.8568 1.75164,-1.8568 1.167754,0 1.751625,0.5839 1.751639,1.7516 m -3.468242,5.1849 c -1.4e-5,1.1911 -0.560535,1.7866 -1.681579,1.7866 -1.214465,0 -1.821698,-0.5955 -1.821698,-1.7866 0,-1.1443 0.58387,-1.7166 1.751638,-1.7166 1.167755,0 1.751625,0.5723 1.751639,1.7166" style="font-size:40px;font-style:normal;font-variant:normal;font-weight:400;font-stretch:normal;line-height:125%;letter-spacing:0;word-spacing:0;fill:#fff;fill-opacity:1;stroke:none;font-family:Droid Arabic Naskh;-inkscape-font-specification:Droid Arabic Naskh"/></g></svg>